<?xml version="1.0" encoding="iso-8859-1"?>
<!-- Uploaded to: SVG Repo, www.svgrepo.com, Generator: SVG Repo Mixer Tools -->
<svg version="1.1" id="Capa_1" xmlns="http://www.w3.org/2000/svg" xmlns:xlink="http://www.w3.org/1999/xlink" 
	 viewBox="0 0 471.417 471.417" xml:space="preserve">
<g>
	<path style="fill:#F4E84A;" d="M359.298,122.171c-1.535,0-3.071-0.586-4.242-1.757c-2.344-2.343-2.344-6.142,0-8.485l33.78-33.781
		c2.342-2.343,6.143-2.343,8.484,0c2.344,2.343,2.344,6.142,0,8.485l-33.78,33.781C362.369,121.586,360.833,122.171,359.298,122.171
		z"/>
	<path style="fill:#F4E84A;" d="M409.367,268.345L227.944,449.768c-10.165,10.165-65.493-28.682-123.578-86.768
		S7.433,249.587,17.597,239.422L199.021,57.998"/>
	<g>
		
			<rect x="96.072" y="55.261" transform="matrix(0.7071 0.7071 -0.7071 0.7071 158.1602 -19.0472)" style="fill:#F28F4C;" width="12" height="252.263"/>
		
			<rect x="279.973" y="239.162" transform="matrix(0.7071 0.7071 -0.7071 0.7071 342.0611 -95.2216)" style="fill:#F28F4C;" width="12" height="252.263"/>
	</g>
	<path style="fill:#45CE83;" d="M269.455,197.91c-29.158-29.158-54.611-58.596-71.669-82.891
		c-25.754-36.68-22.463-47.192-17.746-51.909c0.548-0.548,16.27-16.172,17.007-16.638c5.602-3.545,17.581-3.47,49.997,19.29
		c24.295,17.058,53.733,42.51,82.891,71.669c29.158,29.158,54.611,58.596,71.668,82.891c22.535,32.095,22.832,44.156,19.394,49.829
		c-0.491,0.81-16.153,16.585-16.742,17.175c-4.716,4.716-15.229,8.008-51.909-17.746
		C328.051,252.521,298.613,227.068,269.455,197.91z M202.609,55.49c-0.279,0.932-1.78,9.408,20.32,40.391
		c16.703,23.417,41.234,51.645,69.072,79.483c27.838,27.838,56.066,52.368,79.483,69.072c30.981,22.099,39.458,20.599,40.391,20.32
		c0.279-0.933,1.779-9.41-20.32-40.391c-16.703-23.417-41.234-51.645-69.072-79.483C294.645,117.044,266.417,92.513,243,75.81
		C212.018,53.71,203.541,55.211,202.609,55.49z"/>
	<path style="fill:#F48438;" d="M415.625,268.504c-4.043,4.043-15.021,0.565-30.425-8.679c-3.803-2.28-7.874-4.914-12.185-7.884
		c-15.548-10.691-34.132-25.616-53.953-43.549c-4.445-4.004-8.947-8.171-13.488-12.473c-5.077-4.799-10.202-9.771-15.356-14.896
		c-0.642-0.642-1.293-1.284-1.945-1.935c-4.11-4.11-8.133-8.21-12.032-12.281c-53.081-55.188-87.137-105.309-77.385-115.061
		c5.69-5.69,25.089,3.506,51.213,22.675c4.071,2.989,8.325,6.227,12.703,9.695c4.684,3.698,9.522,7.654,14.494,11.85h0.01
		c4.311,3.64,8.698,7.453,13.182,11.429c11.553,10.26,23.595,21.602,35.751,33.759c7.625,7.625,14.935,15.213,21.851,22.656
		c5.049,5.422,9.886,10.777,14.494,16.027C401.256,223.882,423.787,260.342,415.625,268.504z"/>
	
		<rect x="180.91" y="163.719" transform="matrix(0.7071 0.7071 -0.7071 0.7071 253.0565 -50.0222)" style="fill:#F28F4C;" width="12" height="233.473"/>
	<path style="fill:#FFFFFF;" d="M290.218,181.022c-0.642-0.642-1.293-1.284-1.945-1.935c-4.11-4.11-8.133-8.21-12.032-12.281
		L250.07,74.42c4.071,2.989,8.325,6.227,12.703,9.695L290.218,181.022z"/>
	<path style="fill:#FFFFFF;" d="M319.062,208.391c-4.445-4.004-8.947-8.171-13.488-12.473l-28.298-99.954
		c4.311,3.64,8.698,7.453,13.182,11.429L319.062,208.391z"/>
	<path style="fill:#FFFFFF;" d="M385.2,259.825c-3.803-2.28-7.874-4.914-12.185-7.884l-24.955-88.133
		c5.049,5.422,9.886,10.777,14.494,16.027L385.2,259.825z"/>
	<path style="fill:#45CE83;" d="M227.944,449.768c-10.165,10.165-65.493-28.682-123.578-86.768
		C46.28,304.915,7.433,249.587,17.598,239.422l9.632-9.632c-7.157-2.06-11.313-1.201-13.998,0.498
		c-0.737,0.466-9.431,9.063-9.98,9.611c-4.716,4.716-8.008,15.229,17.746,51.909c17.058,24.295,42.51,53.732,71.669,82.891
		c29.158,29.158,58.596,54.611,82.891,71.668c36.68,25.754,47.193,22.463,51.909,17.746c0.589-0.59,9.224-9.337,9.715-10.148
		c1.629-2.689,2.414-6.819,0.395-13.831L227.944,449.768z"/>
	<g>
		<path style="fill:#F4E84A;" d="M293.762,60.597c-0.975,0-1.964-0.238-2.879-0.74c-2.905-1.594-3.97-5.24-2.376-8.146
			l24.427-44.543c1.593-2.906,5.243-3.968,8.146-2.376c2.905,1.594,3.97,5.24,2.376,8.146l-24.427,44.543
			C297.938,59.471,295.882,60.597,293.762,60.597z"/>
		<path style="fill:#F4E84A;" d="M420.878,187.703c-2.119,0-4.175-1.126-5.266-3.116c-1.594-2.906-0.529-6.552,2.376-8.146
			l44.543-24.427c2.906-1.595,6.552-0.529,8.146,2.376c1.594,2.906,0.529,6.552-2.376,8.146l-44.543,24.427
			C422.843,187.465,421.854,187.703,420.878,187.703z"/>
	</g>
</g>
</svg>